<svg width="100" height="100" viewBox="0 0 100 100" fill="none" xmlns="http://www.w3.org/2000/svg">
<path d="M62.0101 12.9899L87.2222 12.2222L87.0101 37.9898L73.3483 51.6516L74.2323 25.2121L48.3483 26.6517L62.0101 12.9899Z" fill="white"/>
<path d="M37.9904 87.0101L12.2401 87.2396L12.9904 62.0102L26.6522 48.3484L25.23 74.2497L51.6522 73.3483L37.9904 87.0101Z" fill="white"/>
<path d="M13.8206 35.5491L12.1078 12.8922L35.2406 14.1291L48.0557 26.9442L24.2926 25.0771L26.6357 48.3642L13.8206 35.5491Z" fill="white"/>
<path d="M48.3713 27.2595L49.623 50.3775L26.9513 48.6795L14.1362 35.8644L37.4382 38.1926L35.5562 14.4444L48.3713 27.2595Z" fill="white"/>
<path d="M51.3216 73.0481L49.6087 50.3913L72.7416 51.6281L85.5567 64.4432L61.7936 62.5761L64.1367 85.8632L51.3216 73.0481Z" fill="white"/>
<path d="M85.8713 64.7595L87.123 87.8775L64.4513 86.1795L51.6362 73.3644L74.9382 75.6926L73.0562 51.9444L85.8713 64.7595Z" fill="white"/>
</svg>
