<svg width="280" height="100" viewBox="0 0 280 100" fill="none" xmlns="http://www.w3.org/2000/svg">
<path d="M62.0101 12.9899L87.2222 12.2222L87.0101 37.9898L73.3483 51.6516L74.2323 25.2121L48.3483 26.6517L62.0101 12.9899Z" fill="white"/>
<path d="M37.9904 87.0101L12.2401 87.2396L12.9904 62.0102L26.6522 48.3484L25.23 74.2497L51.6522 73.3483L37.9904 87.0101Z" fill="white"/>
<path d="M13.8206 35.5491L12.1078 12.8922L35.2406 14.1291L48.0557 26.9442L24.2926 25.0771L26.6357 48.3642L13.8206 35.5491Z" fill="white"/>
<path d="M48.3713 27.2595L49.623 50.3775L26.9513 48.6795L14.1362 35.8644L37.4382 38.1926L35.5562 14.4444L48.3713 27.2595Z" fill="white"/>
<path d="M51.3216 73.0481L49.6087 50.3913L72.7416 51.6281L85.5567 64.4432L61.7936 62.5761L64.1367 85.8632L51.3216 73.0481Z" fill="white"/>
<path d="M85.8713 64.7595L87.123 87.8775L64.4513 86.1795L51.6362 73.3644L74.9382 75.6926L73.0562 51.9444L85.8713 64.7595Z" fill="white"/>
<path d="M137.75 68L123.4 52.1V68H118.85V33.15H123.4V49.3L137.8 33.15H143.55L127.75 50.6L143.7 68H137.75ZM167.132 68L158.832 53.75H153.332V68H148.782V33.15H160.032C162.665 33.15 164.882 33.6 166.682 34.5C168.515 35.4 169.882 36.6167 170.782 38.15C171.682 39.6833 172.132 41.4333 172.132 43.4C172.132 45.8 171.432 47.9167 170.032 49.75C168.665 51.5833 166.598 52.8 163.832 53.4L172.582 68H167.132ZM153.332 50.1H160.032C162.498 50.1 164.348 49.5 165.582 48.3C166.815 47.0667 167.432 45.4333 167.432 43.4C167.432 41.3333 166.815 39.7333 165.582 38.6C164.382 37.4667 162.532 36.9 160.032 36.9H153.332V50.1ZM183.752 36.85V48.5H196.452V52.25H183.752V64.25H197.952V68H179.202V33.1H197.952V36.85H183.752ZM248.636 33.15L238.536 68H233.436L225.336 39.95L216.936 68L211.886 68.05L202.136 33.15H206.986L214.586 62.7L222.986 33.15H228.086L236.086 62.6L243.736 33.15H248.636ZM264.666 68.35C262.366 68.35 260.299 67.95 258.466 67.15C256.666 66.3167 255.249 65.1833 254.216 63.75C253.182 62.2833 252.649 60.6 252.616 58.7H257.466C257.632 60.3333 258.299 61.7167 259.466 62.85C260.666 63.95 262.399 64.5 264.666 64.5C266.832 64.5 268.532 63.9667 269.766 62.9C271.032 61.8 271.666 60.4 271.666 58.7C271.666 57.3667 271.299 56.2833 270.566 55.45C269.832 54.6167 268.916 53.9833 267.816 53.55C266.716 53.1167 265.232 52.65 263.366 52.15C261.066 51.55 259.216 50.95 257.816 50.35C256.449 49.75 255.266 48.8167 254.266 47.55C253.299 46.25 252.816 44.5167 252.816 42.35C252.816 40.45 253.299 38.7667 254.266 37.3C255.232 35.8333 256.582 34.7 258.316 33.9C260.082 33.1 262.099 32.7 264.366 32.7C267.632 32.7 270.299 33.5167 272.366 35.15C274.466 36.7833 275.649 38.95 275.916 41.65H270.916C270.749 40.3167 270.049 39.15 268.816 38.15C267.582 37.1167 265.949 36.6 263.916 36.6C262.016 36.6 260.466 37.1 259.266 38.1C258.066 39.0667 257.466 40.4333 257.466 42.2C257.466 43.4667 257.816 44.5 258.516 45.3C259.249 46.1 260.132 46.7167 261.166 47.15C262.232 47.55 263.716 48.0167 265.616 48.55C267.916 49.1833 269.766 49.8167 271.166 50.45C272.566 51.05 273.766 52 274.766 53.3C275.766 54.5667 276.266 56.3 276.266 58.5C276.266 60.2 275.816 61.8 274.916 63.3C274.016 64.8 272.682 66.0167 270.916 66.95C269.149 67.8833 267.066 68.35 264.666 68.35Z" fill="white"/>
</svg>
