<svg width="551" height="200" viewBox="0 0 551 200" fill="none" xmlns="http://www.w3.org/2000/svg">
<path d="M124.02 25.9798L174.444 24.4444L174.02 75.9796L146.696 103.303L148.464 50.4241L96.6962 53.3033L124.02 25.9798Z" fill="black"/>
<path d="M75.9803 174.02L24.4797 174.479L25.9804 124.02L53.3039 96.6968L50.4595 148.499L103.304 146.697L75.9803 174.02Z" fill="black"/>
<path d="M27.6407 71.0982L24.215 25.7845L70.4808 28.2581L96.111 53.8883L48.5847 50.1542L53.2709 96.7284L27.6407 71.0982Z" fill="black"/>
<path d="M96.7421 54.519L99.2455 100.755L53.902 97.3591L28.2718 71.7289L74.8758 76.3853L71.1119 28.8888L96.7421 54.519Z" fill="black"/>
<path d="M102.643 146.096L99.217 100.783L145.483 103.256L171.113 128.886L123.587 125.152L128.273 171.726L102.643 146.096Z" fill="black"/>
<path d="M171.742 129.519L174.246 175.755L128.902 172.359L103.272 146.729L149.876 151.385L146.112 103.889L171.742 129.519Z" fill="black"/>
<path d="M267.5 139L238.8 107.2V139H229.7V69.3H238.8V101.6L267.6 69.3H279.1L247.5 104.2L279.4 139H267.5ZM326.263 139L309.663 110.5H298.663V139H289.563V69.3H312.063C317.33 69.3 321.763 70.2 325.363 72C329.03 73.8 331.763 76.2333 333.563 79.3C335.363 82.3667 336.263 85.8667 336.263 89.8C336.263 94.6 334.863 98.8333 332.063 102.5C329.33 106.167 325.197 108.6 319.663 109.8L337.163 139H326.263ZM298.663 103.2H312.063C316.997 103.2 320.697 102 323.163 99.6C325.63 97.1333 326.863 93.8667 326.863 89.8C326.863 85.6667 325.63 82.4667 323.163 80.2C320.763 77.9333 317.063 76.8 312.063 76.8H298.663V103.2ZM359.503 76.7V100H384.903V107.5H359.503V131.5H387.903V139H350.403V69.2H387.903V76.7H359.503ZM489.273 69.3L469.073 139H458.873L442.673 82.9L425.873 139L415.773 139.1L396.273 69.3H405.973L421.173 128.4L437.973 69.3H448.173L464.173 128.2L479.473 69.3H489.273ZM521.331 139.7C516.731 139.7 512.598 138.9 508.931 137.3C505.331 135.633 502.498 133.367 500.431 130.5C498.365 127.567 497.298 124.2 497.231 120.4H506.931C507.265 123.667 508.598 126.433 510.931 128.7C513.331 130.9 516.798 132 521.331 132C525.665 132 529.065 130.933 531.531 128.8C534.065 126.6 535.331 123.8 535.331 120.4C535.331 117.733 534.598 115.567 533.131 113.9C531.665 112.233 529.831 110.967 527.631 110.1C525.431 109.233 522.465 108.3 518.731 107.3C514.131 106.1 510.431 104.9 507.631 103.7C504.898 102.5 502.531 100.633 500.531 98.1C498.598 95.5 497.631 92.0333 497.631 87.7C497.631 83.9 498.598 80.5333 500.531 77.6C502.465 74.6667 505.165 72.4 508.631 70.8C512.165 69.2 516.198 68.4 520.731 68.4C527.265 68.4 532.598 70.0333 536.731 73.3C540.931 76.5667 543.298 80.9 543.831 86.3H533.831C533.498 83.6333 532.098 81.3 529.631 79.3C527.165 77.2333 523.898 76.2 519.831 76.2C516.031 76.2 512.931 77.2 510.531 79.2C508.131 81.1333 506.931 83.8667 506.931 87.4C506.931 89.9333 507.631 92 509.031 93.6C510.498 95.2 512.265 96.4333 514.331 97.3C516.465 98.1 519.431 99.0333 523.231 100.1C527.831 101.367 531.531 102.633 534.331 103.9C537.131 105.1 539.531 107 541.531 109.6C543.531 112.133 544.531 115.6 544.531 120C544.531 123.4 543.631 126.6 541.831 129.6C540.031 132.6 537.365 135.033 533.831 136.9C530.298 138.767 526.131 139.7 521.331 139.7Z" fill="black"/>
</svg>
